# xmcd CD database file
#
# Track frame offsets:
#	150
#	13160
#	27657
#	34589
#	49188
#	70464
#	86229
#	99033
#	113549
#	128806
#
# Disc length: 1885 seconds
#
# Revision: 0
# Processed by: cddbd v1.5.2PL0 Copyright (c) Steve Scherf et al.
# Submitted via: CDex 1.51
#
DISCID=7f075b0a
DTITLE=Frank Sinatra - Audition Songs for Male Singers
DYEAR=2006
DGENRE=Jazz
TTITLE0=The Best Of Everything
TTITLE1=Come Fly With Me
TTITLE2=Love And Marriage
TTITLE3=The Girl From Ipanema
TTITLE4=My Way
TTITLE5=New York, New York
TTITLE6=Strangers In The Night
TTITLE7=That's Life
TTITLE8=The Way You Look Tonight
TTITLE9=Somethin' Stupid
EXTD=YEAR: 2006
EXTT0=
EXTT1=
EXTT2=
EXTT3=
EXTT4=
EXTT5=
EXTT6=
EXTT7=
EXTT8=
EXTT9=
PLAYORDER=
